<mxfile host="app.diagrams.net" modified="2023-08-22T02:00:24.899Z" agent="Mozilla/5.0 (Windows NT 10.0; Win64; x64) AppleWebKit/537.36 (KHTML, like Gecko) Chrome/116.0.0.0 Safari/537.36" version="21.6.8" etag="itd1egntUVdc9fWw8QaY" type="github">
  <diagram name="第 1 页" id="SQNfulZLGzp0-eOHp856">
    <mxGraphModel>
      <root>
        <mxCell id="0" />
        <mxCell id="1" parent="0" />
      </root>
    </mxGraphModel>
  </diagram>
</mxfile>
